<?xml version="1.0" standalone="no"?>
<!DOCTYPE svg PUBLIC "-//W3C//DTD SVG 20010904//EN"
 "http://www.w3.org/TR/2001/REC-SVG-20010904/DTD/svg10.dtd">
<svg version="1.0" xmlns="http://www.w3.org/2000/svg"
 width="937.000000pt" height="724.000000pt" viewBox="0 0 937.000000 724.000000"
 preserveAspectRatio="xMidYMid meet">
<metadata>
Created by potrace 1.16, written by Peter Selinger 2001-2019
</metadata>
<g transform="translate(0.000000,724.000000) scale(0.100000,-0.100000)"
fill="#000000" stroke="none">
<path d="M204 7207 c-45 -72 -130 -260 -156 -347 -45 -150 -48 -172 -48 -360
0 -141 4 -200 16 -245 9 -33 23 -82 30 -110 8 -27 20 -63 28 -80 7 -16 19 -46
27 -65 22 -57 158 -320 193 -374 33 -51 56 -92 126 -221 21 -39 59 -129 85
-200 27 -72 52 -135 56 -140 4 -6 19 -66 33 -134 56 -267 21 -539 -104 -831
-10 -25 -33 -79 -51 -120 -17 -41 -57 -129 -89 -195 -31 -66 -67 -146 -79
-178 -13 -31 -27 -60 -32 -63 -5 -3 -9 -13 -9 -22 0 -9 -13 -48 -29 -87 -41
-100 -76 -221 -107 -365 -38 -182 -45 -455 -14 -625 11 -66 25 -147 31 -179
14 -84 85 -312 173 -556 115 -320 195 -597 246 -855 12 -60 28 -130 35 -155
30 -101 41 -491 18 -657 l-5 -43 4107 0 4107 0 -6 33 c-23 132 -11 566 19 667
7 25 23 92 34 150 47 235 92 399 202 725 69 208 84 249 131 377 15 43 28 84
28 93 0 9 9 44 21 78 12 34 35 132 51 217 25 127 32 188 35 335 5 185 5 180
-47 470 -23 122 -117 373 -230 610 -92 193 -157 347 -190 450 -13 39 -26 75
-31 81 -5 5 -20 70 -34 144 -36 181 -36 328 -1 496 14 67 32 134 41 150 8 16
15 37 15 46 0 9 4 19 9 22 5 3 12 18 16 33 3 16 14 44 22 63 52 117 96 208
109 230 8 14 28 50 45 80 16 30 44 78 61 105 26 43 63 108 97 172 37 70 131
287 131 301 0 6 12 52 26 101 25 87 26 99 22 293 -4 185 -7 210 -31 288 -35
110 -85 235 -114 282 -13 21 -23 42 -23 47 0 6 -14 30 -31 55 l-30 46 -618 0
-617 0 73 -147 c177 -360 205 -616 103 -933 -34 -103 -116 -289 -164 -370 -82
-138 -123 -214 -178 -325 -100 -201 -128 -261 -128 -274 0 -6 -12 -40 -27 -74
-65 -153 -91 -436 -59 -637 17 -105 51 -236 66 -255 4 -5 13 -30 20 -55 17
-65 83 -222 171 -405 160 -335 235 -564 279 -846 21 -134 8 -388 -29 -569 -17
-85 -40 -182 -50 -215 -71 -230 -95 -304 -107 -331 -40 -92 -183 -539 -209
-654 -7 -30 -22 -89 -33 -130 -11 -41 -23 -100 -27 -130 -3 -30 -10 -59 -14
-65 -9 -11 -37 -168 -47 -262 -3 -35 -8 -63 -11 -63 -3 0 -19 6 -36 14 -18 7
-68 28 -112 46 -44 19 -168 86 -275 150 -291 173 -446 249 -600 292 -185 52
-189 52 -390 53 -189 0 -199 -1 -323 -33 -115 -30 -195 -57 -352 -120 -27 -11
-121 -54 -208 -96 -88 -42 -202 -95 -255 -117 -54 -22 -127 -54 -165 -70 -37
-16 -75 -29 -85 -29 -9 0 -44 -10 -77 -21 -81 -27 -318 -59 -435 -59 -164 0
-411 40 -590 96 -46 14 -182 62 -305 109 -68 25 -268 95 -390 135 -87 29 -301
88 -344 96 -20 3 -72 15 -115 26 -44 11 -112 23 -150 28 -39 5 -127 16 -196
24 -69 9 -186 16 -261 16 l-135 0 -17 53 c-9 30 -17 61 -17 69 0 36 -123 423
-195 613 -24 61 -65 186 -109 331 -14 44 -40 150 -57 235 -28 130 -33 181 -37
332 -2 105 1 205 7 245 48 289 123 516 277 837 29 61 66 143 83 183 17 39 45
103 61 140 17 38 30 77 30 88 0 10 6 31 14 45 76 147 108 481 66 699 -22 110
-50 211 -61 220 -4 3 -12 23 -18 46 -21 77 -147 336 -236 484 -81 134 -205
394 -240 503 -68 212 -70 442 -7 647 34 108 60 170 138 323 l55 107 -623 0
-623 -1 -21 -32z"/>
</g>
</svg>
